# xmcd CD database file
#
# Track frame offsets:
#	150
#	19319
#	38884
#	57436
#	76004
#	94529
#	111998
#	133717
#	152185
#	168096
#
# Disc length: 2455 seconds
#
# Revision: 0
# Processed by: cddbd v1.5.2PL0 Copyright (c) Steve Scherf et al.
# Submitted via: CDex 1.70beta2
#
DISCID=7709950a
DTITLE=Workma Ken and the Union - Cdn. - OVM - Ken Workman and the Union
DYEAR=2008
DGENRE=Country
TTITLE0=This Train Goes Home
TTITLE1=Walk You Home
TTITLE2=Centennial Girl
TTITLE3='Til It Comes Around
TTITLE4=Highway One
TTITLE5=Here We Go Again
TTITLE6=The Loving Dead
TTITLE7=The Healing
TTITLE8=Come Back To Me
TTITLE9=Lonelytown
EXTD=YEAR: 2008
EXTT0=
EXTT1=
EXTT2=
EXTT3=
EXTT4=
EXTT5=
EXTT6=
EXTT7=
EXTT8=
EXTT9=
PLAYORDER=
